<svg xmlns="http://www.w3.org/2000/svg" height="197.147" width="579.893"><g fill="#fff"><path d="M45.077 103.23h-2.632a.734.734 0 00-.734.734v43.072c0 .405.33.734.734.734h2.632a.734.734 0 00.734-.734v-43.072a.734.734 0 00-.734-.733M76.685 102.269c-6.23 0-11.312 3.87-13.817 6.61v-4.915a.734.734 0 00-.734-.733h-2.632a.734.734 0 00-.734.733v43.072c0 .405.329.734.734.734h2.632a.734.734 0 00.734-.734V113.66c1.628-1.97 6.664-7.393 12.754-7.393 7.44 0 10.426 2.683 10.426 10.78v29.989c0 .405.329.734.734.734h2.632a.734.734 0 00.734-.734v-30.849c0-7.743-3.594-13.918-13.463-13.918M92.492 32.172c-6.597 0-8.93 5.699-9.334 8.39h19.386c-.673-4.173-3.455-8.39-10.052-8.39"/><path d="M316.635.007H30.96C13.86.007 0 13.868 0 30.967v56.07h133.79a.73.73 0 00-.42.656v21.453c-2.2-2.63-6.529-6.827-14.221-6.827-8.857 0-18.474 7.036-18.474 23.03 0 15.993 9.465 23.433 18.93 23.433 7.109 0 11.848-4.312 13.766-6.458v4.712c0 .405.329.734.734.734h2.632a.733.733 0 00.734-.734V87.693a.73.73 0 00-.419-.657h210.543v-56.07c0-17.098-13.862-30.96-30.96-30.96zM133.37 136.632c-1.366 2.337-5.674 8.1-13.463 8.1-9.87 0-14.88-8.097-14.88-19.08 0-10.983 5.163-19.385 14.374-19.385 7.911 0 12.757 6.305 13.969 8.086zM46.674 70.316c-10.643 0-17.161-5.546-19.229-7.327a.818.818 0 01-.173-1.03l4.871-8.41a.818.818 0 011.265-.19c1.503 1.393 5.194 4.4 10.029 5.449 6.378 1.385 9.944-.084 10.405-2.685.462-2.602-2.013-3.65-4.279-4.112-2.266-.462-9.902-1.384-15.608-5.16-5.706-3.776-6.881-13.132-2.14-19.594 4.741-6.461 14.014-6.838 19.384-6 5.11.799 9.485 3.244 13.103 6.003a.82.82 0 01.22 1.037l-4.365 8.204a.815.815 0 01-1.27.223c-1.677-1.535-6.001-4.912-11.585-4.912-3.724 0-6.372 1.616-6.372 3.367 0 1.749 1.256 2.108 2.334 2.557 1.077.45 7.045 1.84 11.488 3.007 4.442 1.166 11.353 4.936 11.353 14.36 0 9.11-7.584 15.213-19.431 15.213zm68.032-20.06H83.337s1.257 6.687 7.584 8.257c6.047 1.502 10.945-.93 14.658-3.773a.581.581 0 01.85.153l4.95 8.048c.14.228.11.518-.075.708-1.34 1.395-7.12 6.667-17.87 6.667-12.385 0-23.335-8.705-23.335-24.95 0-16.246 12.161-24.323 22.707-24.323 16.335 0 22.887 15.302 21.9 29.213zm32.574-16.879a.778.778 0 01-.95.758c-3.48-.748-9.106-.112-12.423 4.31v29.81a.89.89 0 01-.89.89h-10.838a.89.89 0 01-.891-.89V23.024a.89.89 0 01.89-.89h10.838a.89.89 0 01.89.89v3.745c3.394-3.604 8.418-5.628 12.558-5.934.443-.034.816.333.816.777zm70.46 34.878c0 .491-.4.89-.892.89h-10.837a.89.89 0 01-.891-.89V39.456c0-3.713-1.335-6.388-5.93-6.388-4.373 0-7.822 4.815-7.822 4.815v30.372a.89.89 0 01-.89.89H179.64a.89.89 0 01-.89-.89v-28.39c0-4.594-1.745-6.86-5.047-6.86-3.772 0-6.62 2.672-8.368 4.57v30.68a.89.89 0 01-.891.89h-10.837a.892.892 0 01-.892-.89V23.024c0-.492.4-.89.892-.89h10.837a.89.89 0 01.89.89v3.745c1.75-1.686 6.729-5.824 13.51-5.824 6.407 0 9.763 3.584 11.441 7.278 3.567-4.28 8.518-7.218 14.434-7.218 10.614 0 13.021 7.636 13.021 14.182v33.068zm30 2.012c-14.655 0-23.185-11.011-23.185-24.634 0-13.621 8.53-24.632 23.185-24.632s23.185 11.011 23.185 24.632c0 13.623-8.53 24.634-23.185 24.634zm70.981-2.012c0 .491-.4.89-.89.89h-10.839a.89.89 0 01-.89-.89V39.6c0-3.76-2.425-6.581-6.88-6.581-3.77 0-7.109 2.657-8.857 4.555v30.68a.89.89 0 01-.89.89h-10.838a.892.892 0 01-.892-.89V23.024c0-.492.4-.89.892-.89h10.838a.89.89 0 01.89.89v3.745c1.75-1.686 6.728-5.824 13.51-5.824 9.304 0 14.846 5.295 14.846 14.252v33.058"/><path d="M247.74 33.179c-7.017 0-10.183 6.262-10.183 12.454 0 6.192 3.166 12.456 10.183 12.456 7.017 0 10.183-6.264 10.183-12.456 0-6.192-3.166-12.454-10.183-12.454M167.99 102.218c-13.007 0-19.993 12.147-19.993 22.827 0 14.627 8.858 23.788 20.702 23.788 8.934 0 13.582-4.741 16.153-7.431a.636.636 0 00.027-.852l-1.63-1.93a.635.635 0 00-.952-.023c-1.4 1.527-5.849 5.763-12.434 6.136-7.499.424-16.703-4.251-17.411-17.461h34.037c.567 0 1.028-.472 1.004-1.038-.581-13.615-6.816-24.016-19.502-24.016zm-15.386 20.954c.304-9.82 6.883-16.905 15.487-16.905s14.222 7.136 14.982 16.905h-30.469M213.845 125.046l15.248-20.75a.638.638 0 00-.514-1.015h-3.696a.42.42 0 00-.343.174l-13.192 18.078-13.027-18.076a.425.425 0 00-.344-.176h-4.117a.638.638 0 00-.512 1.02l15.436 20.694-16.097 21.655a.638.638 0 00.512 1.018h3.865a.425.425 0 00.344-.175l13.981-19.372 13.906 19.37c.08.111.208.177.345.177h3.885c.526 0 .826-.6.511-1.02l-16.19-21.602M238.581 143.575a2.44 2.44 0 10-.001 4.879 2.44 2.44 0 00.001-4.879M258.117 120.824c-4.365 0-7.334 2.746-8.109 3.548v-2.568a.445.445 0 00-.445-.446h-1.99c-.246 0-.446.2-.446.446v25.84c0 .246.2.445.446.445h1.99c.246 0 .445-.2.445-.445v-19.54c1.19-1.423 3.879-4.429 7.841-4.429 4.575 0 5.139 3.475 5.139 6.237v17.732c0 .246.199.445.445.445h2.198c.246 0 .445-.2.445-.445V129.02c0-3.683-1.812-8.197-7.959-8.197M309.299 144.617a.618.618 0 00-.898-.082c-.556.492-1.509 1.208-2.346 1.208-1.278 0-1.723-1.158-1.723-2.733v-18.563h4.143c.32 0 .58-.26.58-.579v-1.87a.58.58 0 00-.58-.58h-4.143v-6.339a.464.464 0 00-.464-.463h-2.161a.464.464 0 00-.464.463v6.338h-3.371a.58.58 0 00-.58.58v1.871c0 .32.26.58.58.58h3.37v18.86c0 3.623 2.14 5.405 5.05 5.405 2.124 0 3.52-1.202 4.12-1.852a.617.617 0 00.025-.8l-1.138-1.444M283.63 120.764c-6.713 0-11.97 6-11.97 13.722 0 7.723 4.545 14.198 12.535 14.198 5.624 0 8.441-3.127 9.753-4.673a.603.603 0 00-.02-.8l-1.077-1.162a.603.603 0 00-.884-.004c-1.023 1.105-3.819 3.698-7.535 3.698-4.396 0-9.03-3.297-9.415-9.742h19.867a.6.6 0 00.597-.602c-.093-9.673-5.274-14.635-11.85-14.635zm-8.673 12.267c.535-5.138 3.624-9.237 8.732-9.237 5.108 0 8.02 4.306 8.466 9.237h-17.198M1.748 175.267h6.148c.743 0 1.522.087 2.335.257.814.17 1.557.466 2.231.888a5 5 0 011.657 1.733c.432.734.648 1.653.648 2.758 0 .963-.176 1.798-.527 2.502a4.93 4.93 0 01-1.417 1.733 6.13 6.13 0 01-2.049 1.009 8.775 8.775 0 01-2.426.331h-4.61v10.126h-1.99zm1.99 9.403h4.52c.562 0 1.115-.065 1.657-.197a4.25 4.25 0 001.446-.633c.422-.29.763-.676 1.025-1.16.261-.481.392-1.074.392-1.777 0-.683-.136-1.265-.407-1.748a3.67 3.67 0 00-1.054-1.19 4.342 4.342 0 00-1.493-.679 6.985 6.985 0 00-1.687-.21h-4.4v7.594M19.046 175.267h5.606c.28 0 .662.01 1.144.03.482.022 1.005.081 1.568.181.561.1 1.134.262 1.717.483a4.87 4.87 0 011.567.964c.462.422.844.954 1.145 1.597.302.643.452 1.427.452 2.351 0 1.025-.176 1.869-.527 2.532-.352.662-.794 1.2-1.326 1.611a5.579 5.579 0 01-1.763.92c-.643.2-1.256.34-1.838.422l6.208 10.246h-2.26l-5.997-10.126h-3.707v10.126h-1.99zm1.989 9.403h4.219c1.044 0 1.893-.13 2.547-.392.652-.26 1.16-.582 1.52-.965.363-.38.608-.792.74-1.236.13-.44.195-.843.195-1.204 0-.362-.065-.764-.196-1.206a3.057 3.057 0 00-.738-1.235c-.362-.382-.87-.704-1.521-.965-.654-.26-1.503-.392-2.547-.392h-4.22v7.595M35.53 185.936c0-1.628.271-3.124.814-4.491.542-1.366 1.296-2.546 2.26-3.54.964-.995 2.125-1.774 3.48-2.336 1.357-.563 2.849-.844 4.475-.844 1.628 0 3.12.281 4.476.844 1.356.562 2.516 1.34 3.481 2.336.964.994 1.717 2.174 2.26 3.54.542 1.367.814 2.863.814 4.49 0 1.628-.272 3.13-.815 4.506-.542 1.376-1.295 2.56-2.259 3.556-.965.995-2.125 1.768-3.481 2.32-1.356.553-2.848.83-4.476.83-1.626 0-3.118-.277-4.475-.83-1.355-.552-2.516-1.325-3.48-2.32-.964-.995-1.718-2.18-2.26-3.556-.543-1.376-.814-2.878-.814-4.505zm1.99 0c0 1.325.21 2.56.632 3.707a8.808 8.808 0 001.808 2.983 8.362 8.362 0 002.848 1.988c1.115.483 2.365.724 3.751.724 1.387 0 2.638-.24 3.752-.724a8.36 8.36 0 002.849-1.988 8.808 8.808 0 001.808-2.983c.422-1.146.633-2.382.633-3.707 0-1.326-.211-2.561-.633-3.708a8.808 8.808 0 00-1.808-2.982 8.377 8.377 0 00-2.849-1.99c-1.114-.482-2.365-.723-3.752-.723-1.386 0-2.636.241-3.751.723a8.38 8.38 0 00-2.848 1.99 8.808 8.808 0 00-1.808 2.982c-.422 1.147-.633 2.382-.633 3.708M61.838 175.267h2.984l7.775 17.902 7.774-17.902h2.834v21.337h-1.99v-18.805h-.06l-8.136 18.805h-.874l-8.258-18.805h-.06v18.805h-1.989v-21.337M87.454 185.936c0-1.628.271-3.124.814-4.491.542-1.366 1.296-2.546 2.26-3.54.964-.995 2.125-1.774 3.48-2.336 1.356-.563 2.848-.844 4.475-.844 1.628 0 3.12.281 4.476.844 1.356.562 2.516 1.34 3.48 2.336.965.994 1.718 2.174 2.26 3.54.543 1.367.815 2.863.815 4.49 0 1.628-.272 3.13-.815 4.506-.542 1.376-1.295 2.56-2.26 3.556-.964.995-2.124 1.768-3.48 2.32-1.356.553-2.848.83-4.476.83-1.627 0-3.119-.277-4.475-.83-1.355-.552-2.516-1.325-3.48-2.32-.964-.995-1.718-2.18-2.26-3.556-.543-1.376-.814-2.878-.814-4.505zm1.99 0c0 1.325.21 2.56.632 3.707a8.808 8.808 0 001.808 2.983 8.36 8.36 0 002.847 1.988c1.116.483 2.366.724 3.752.724 1.387 0 2.638-.24 3.752-.724a8.36 8.36 0 002.849-1.988 8.819 8.819 0 001.808-2.983c.422-1.146.633-2.382.633-3.707 0-1.326-.211-2.561-.633-3.708a8.819 8.819 0 00-1.808-2.982 8.377 8.377 0 00-2.849-1.99c-1.114-.482-2.365-.723-3.752-.723-1.386 0-2.636.241-3.752.723a8.378 8.378 0 00-2.847 1.99 8.808 8.808 0 00-1.808 2.982c-.422 1.147-.633 2.382-.633 3.708M118.704 177.075h-7.293v-1.808h16.575v1.808h-7.293v19.529h-1.989v-19.529M131.271 175.267h1.989v21.337h-1.989v-21.337M139.105 175.267h2.563l12.988 18.684h.06v-18.684h1.99v21.337h-2.562l-12.99-18.684h-.06v18.684h-1.989v-21.337M180.152 195.217a13.8 13.8 0 01-3.873 1.492c-1.336.29-2.698.438-4.084.438-1.627 0-3.119-.277-4.475-.83-1.356-.552-2.516-1.325-3.481-2.32-.964-.995-1.718-2.18-2.259-3.556-.544-1.376-.815-2.878-.815-4.505 0-1.628.271-3.124.815-4.491.541-1.366 1.295-2.546 2.259-3.54.965-.995 2.125-1.774 3.481-2.336 1.356-.563 2.848-.844 4.475-.844 3.174 0 5.736.984 7.685 2.953l-1.447 1.508a6.248 6.248 0 00-1.19-1.07 8.02 8.02 0 00-1.538-.844c-.552-.23-1.129-.412-1.732-.544a8.45 8.45 0 00-1.778-.195c-1.386 0-2.636.241-3.752.723a8.38 8.38 0 00-2.848 1.99 8.807 8.807 0 00-1.807 2.982c-.423 1.147-.633 2.382-.633 3.708 0 1.325.21 2.56.633 3.707a8.808 8.808 0 001.807 2.983 8.363 8.363 0 002.848 1.988c1.116.483 2.366.724 3.752.724 1.145 0 2.22-.09 3.225-.271a8.271 8.271 0 002.741-.995V186.9h-5.122v-1.808h7.113v10.125M211.432 195.217a13.8 13.8 0 01-3.873 1.492c-1.336.29-2.696.438-4.083.438-1.628 0-3.12-.277-4.476-.83-1.355-.552-2.516-1.325-3.48-2.32-.964-.995-1.717-2.18-2.26-3.556-.543-1.376-.813-2.878-.813-4.505 0-1.628.27-3.124.813-4.491.543-1.366 1.296-2.546 2.26-3.54.964-.995 2.125-1.774 3.48-2.336 1.356-.563 2.848-.844 4.476-.844 3.175 0 5.735.984 7.684 2.953l-1.445 1.508a6.33 6.33 0 00-1.191-1.07 8.1 8.1 0 00-1.537-.844c-.554-.23-1.131-.412-1.734-.544a8.428 8.428 0 00-1.777-.195c-1.387 0-2.637.241-3.752.723a8.38 8.38 0 00-2.848 1.99 8.832 8.832 0 00-1.808 2.982c-.421 1.147-.632 2.382-.632 3.708 0 1.325.21 2.56.632 3.707a8.832 8.832 0 001.808 2.983 8.363 8.363 0 002.848 1.988c1.115.483 2.365.724 3.752.724 1.145 0 2.22-.09 3.224-.271a8.278 8.278 0 002.743-.995V186.9h-5.124v-1.808h7.113v10.125M217.279 175.267h13.048v1.808h-11.06v7.595h10.366v1.808h-10.366v8.317h11.542v1.809h-13.53v-21.337M235.148 175.267h2.561l12.99 18.684h.06v-18.684h1.989v21.337h-2.563l-12.988-18.684h-.06v18.684h-1.989v-21.337M273.752 188.437c0 1.145-.13 2.24-.392 3.285a7.513 7.513 0 01-1.31 2.772c-.614.804-1.417 1.447-2.411 1.929-.995.481-2.215.724-3.662.724-1.446 0-2.666-.243-3.661-.724-.995-.482-1.799-1.125-2.41-1.929a7.494 7.494 0 01-1.311-2.772 13.492 13.492 0 01-.392-3.285v-13.17h1.988v12.657c0 .764.07 1.578.212 2.441.14.865.416 1.668.828 2.412a5.09 5.09 0 001.748 1.837c.753.483 1.752.724 2.998.724 1.246 0 2.246-.24 2.999-.724a5.09 5.09 0 001.748-1.837c.41-.744.688-1.547.828-2.412.141-.863.212-1.677.212-2.441v-12.657h1.988v13.17M279.207 175.267h1.989v21.337h-1.99v-21.337M287.041 175.267h2.562l12.988 18.684h.061v-18.684h1.988v21.337h-2.56l-12.99-18.684h-.06v18.684h-1.989v-21.337M310.488 175.267h13.048v1.808h-11.059v7.595h10.366v1.808h-10.366v8.317h11.542v1.809h-13.531v-21.337M336.193 175.267h6.147c.804 0 1.617.066 2.441.196a5.823 5.823 0 012.215.814c.653.412 1.185.984 1.599 1.717.41.734.616 1.704.616 2.91 0 1.084-.322 2.028-.963 2.831-.643.805-1.597 1.337-2.864 1.598v.06c.704.061 1.347.227 1.93.497a4.8 4.8 0 011.505 1.085c.422.453.749.99.981 1.613.23.623.347 1.306.347 2.048 0 1.227-.238 2.225-.708 2.999-.474.774-1.067 1.381-1.779 1.824a6.825 6.825 0 01-2.321.904c-.834.161-1.612.241-2.335.241h-6.81zm1.99 9.222h4.128c1.024 0 1.857-.125 2.501-.376.643-.252 1.145-.558 1.507-.92.361-.361.602-.748.724-1.16.12-.41.18-.789.18-1.13 0-.743-.126-1.36-.376-1.854a3.131 3.131 0 00-1.011-1.174 4.077 4.077 0 00-1.476-.619 8.518 8.518 0 00-1.777-.18h-4.4zm0 10.306h4.549c1.165 0 2.104-.14 2.819-.422.713-.281 1.26-.633 1.642-1.054.382-.422.636-.87.768-1.342.131-.471.196-.898.196-1.28 0-.784-.15-1.457-.452-2.02a4.012 4.012 0 00-1.176-1.37 4.826 4.826 0 00-1.642-.768 7.238 7.238 0 00-1.852-.241h-4.852v8.497M355.177 175.267h1.99v21.337h-1.99v-21.337M363.013 175.267h6.147c.804 0 1.617.066 2.443.196a5.832 5.832 0 012.214.814c.652.412 1.184.984 1.598 1.717.412.734.617 1.704.617 2.91 0 1.084-.323 2.028-.964 2.831-.643.805-1.597 1.337-2.863 1.598v.06c.703.061 1.346.227 1.928.497.584.27 1.084.633 1.507 1.085.421.453.748.99.98 1.613.23.623.347 1.306.347 2.048 0 1.227-.238 2.225-.708 2.999-.474.774-1.066 1.381-1.779 1.824a6.818 6.818 0 01-2.32.904c-.833.161-1.612.241-2.336.241h-6.81zm1.99 9.222h4.128c1.024 0 1.857-.125 2.501-.376.643-.252 1.145-.558 1.507-.92.361-.361.602-.748.724-1.16.121-.41.18-.789.18-1.13 0-.743-.126-1.36-.376-1.854a3.14 3.14 0 00-1.01-1.174 4.084 4.084 0 00-1.477-.619 8.518 8.518 0 00-1.777-.18h-4.4zm0 10.306h4.549c1.165 0 2.105-.14 2.819-.422.713-.281 1.26-.633 1.642-1.054.382-.422.638-.87.768-1.342.131-.471.196-.898.196-1.28 0-.784-.15-1.457-.452-2.02a4.012 4.012 0 00-1.176-1.37 4.814 4.814 0 00-1.642-.768 7.23 7.23 0 00-1.852-.241h-4.852v8.497M381.997 175.267h1.991v19.528h9.943v1.809h-11.934v-21.337M397.067 175.267h1.989v21.337h-1.99v-21.337M422.47 193.259c-1.025 1.386-2.209 2.38-3.555 2.983-1.347.603-2.803.905-4.371.905-1.627 0-3.117-.277-4.475-.83-1.354-.552-2.516-1.325-3.481-2.32-.964-.995-1.716-2.18-2.26-3.556-.541-1.376-.813-2.878-.813-4.505 0-1.628.272-3.124.813-4.491.544-1.366 1.296-2.546 2.26-3.54.965-.995 2.127-1.774 3.481-2.336 1.358-.563 2.848-.844 4.475-.844 1.447 0 2.799.257 4.053.768 1.256.513 2.356 1.371 3.3 2.577l-1.625 1.357c-.665-1.005-1.513-1.739-2.548-2.2a7.717 7.717 0 00-3.18-.694c-1.384 0-2.636.241-3.75.723a8.355 8.355 0 00-2.849 1.99 8.79 8.79 0 00-1.808 2.982c-.422 1.147-.633 2.382-.633 3.708 0 1.325.21 2.56.633 3.707a8.79 8.79 0 001.808 2.983 8.338 8.338 0 002.848 1.988c1.115.483 2.367.724 3.751.724.544 0 1.107-.065 1.688-.195a7.757 7.757 0 001.704-.603 8.27 8.27 0 001.581-1.025c.502-.411.944-.909 1.326-1.492l1.628 1.236M432.655 175.267h2.05l8.98 21.337h-2.23l-2.32-5.666h-11.302l-2.409 5.666h-2.08zm.936 2.17l-4.974 11.692h9.795zM446.76 175.267h1.99v19.528h9.943v1.809H446.76v-21.337M469.663 175.267h5.606c.282 0 .662.01 1.144.03.483.022 1.006.081 1.568.181.562.1 1.134.262 1.718.483a4.91 4.91 0 011.568.964c.46.422.842.954 1.144 1.597.301.643.452 1.427.452 2.351 0 1.025-.176 1.869-.528 2.532-.351.662-.795 1.2-1.326 1.611a5.575 5.575 0 01-1.762.92c-.644.2-1.256.34-1.839.422l6.208 10.246h-2.26l-5.997-10.126h-3.707v10.126h-1.99zm1.989 9.403h4.22c1.044 0 1.892-.13 2.545-.392.654-.26 1.16-.582 1.522-.965.362-.38.609-.792.738-1.236.131-.44.196-.843.196-1.204 0-.362-.065-.764-.196-1.206a3.03 3.03 0 00-.738-1.235c-.362-.382-.868-.704-1.522-.965-.653-.26-1.501-.392-2.545-.392h-4.22v7.595M487.533 175.267h13.048v1.808h-11.058v7.595h10.365v1.808h-10.365v8.317h11.541v1.809h-13.53v-21.337M502.39 175.267h2.14l6.87 18.715 6.93-18.715h2.11l-8.107 21.337h-1.988l-7.956-21.337M523.273 175.267h1.991v21.337h-1.99v-21.337M528.095 175.267h2.14l6.87 18.715 6.932-18.715h2.11l-8.107 21.337h-1.99l-7.955-21.337M553.86 175.267h2.05l8.98 21.337h-2.23l-2.321-5.666h-11.3l-2.411 5.666h-2.08zm.935 2.17l-4.974 11.692h9.795zM567.964 175.267h1.99v19.528h9.943v1.809h-11.933v-21.337"/></g></svg>